<?xml version="1.0" encoding="utf-8"?>
<!-- Generator: Adobe Illustrator 24.0.3, SVG Export Plug-In . SVG Version: 6.00 Build 0)  -->
<svg version="1.1" xmlns="http://www.w3.org/2000/svg" xmlns:xlink="http://www.w3.org/1999/xlink" x="0px" y="0px"
	 viewBox="0 0 430.44 532.05" style="enable-background:new 0 0 430.44 532.05;" xml:space="preserve">
<style type="text/css">
	.st0{display:none;}
	.st1{display:inline;}
	.st2{fill:#50A54A;}
</style>
<g id="レイヤー_1" class="st0">
	<g class="st1">
		<path d="M376.59,240.39c-55.45,73.36-110.06,145.59-165.13,218.44c-54.97-72.72-109.64-145.03-165-218.26c28.96,0,56.82,0,85.26,0
			c0-80.5,0-160.38,0-240.57c53.18,0,105.78,0,159.19,0c0,80.05,0,160.05,0,240.39C319.51,240.39,347.31,240.39,376.59,240.39z"/>
		<path d="M7.83,470.2c143.62,0,286.9,0,430.44,0c0,20.72,0,41.12,0,61.85c-143.51,0-286.79,0-430.44,0
			C7.83,511.51,7.83,491.1,7.83,470.2z"/>
	</g>
</g>
<g id="レイヤー_2">
	<path class="st2" d="M0,470.2v61.85h430.44V470.2H0z M380.29,240.66H294.6V0H135.84v240.66H50.16l165.07,218.17L380.29,240.66z"/>
</g>
</svg>
