<svg width="17" height="17" viewBox="0 0 17 17" fill="none" xmlns="http://www.w3.org/2000/svg">
<path fill-rule="evenodd" clip-rule="evenodd" d="M16.5692 14.4886C17.1436 15.063 17.1436 15.9947 16.5692 16.5691C16.2818 16.8565 15.9055 17 15.5289 17C15.1523 17 14.776 16.8565 14.4886 16.5691L8.5 10.5805L2.51137 16.5691C2.224 16.8565 1.84771 17 1.47109 17C1.09447 17 0.718175 16.8565 0.430807 16.5691C-0.143602 15.9947 -0.143602 15.063 0.430807 14.4886L6.41944 8.49996L0.430807 2.51135C-0.143602 1.93695 -0.143602 1.00521 0.430807 0.430805C1.00554 -0.143602 1.93663 -0.143602 2.51137 0.430805L8.5 6.41941L14.4886 0.430805C15.0634 -0.143602 15.9945 -0.143602 16.5692 0.430805C17.1436 1.00521 17.1436 1.93695 16.5692 2.51135L10.5806 8.49996L16.5692 14.4886Z" fill="#8A8A8A"/>
</svg>
